<?xml version="1.0" standalone="no"?>
<svg xmlns="http://www.w3.org/2000/svg" viewBox="0 0 247.224 36" width="247.224" height="36"><g fill="#f2af29" color="#f2af29" transform="translate(0 3.9999999999999982) scale(0.2800001)"><svg width="100.0" height="100.0" x="0.0" y="0.0" viewBox="0 0 100 100"><path d="M59.548,30.029c-6.239,7.63-2.797,10.774-0.563,12.769C65.811,34.981,61.788,31.815,59.548,30.029L59.548,30.029z   M78.551,45.218c-7.152,8.739-10.953,5.28-13.085,3.375C72.547,40.49,76.21,43.342,78.551,45.218L78.551,45.218z M66.666,20.493  c-5.734,8.043-2.09,10.95,0.27,12.794C73.24,25.023,69.02,22.125,66.666,20.493L66.666,20.493z M86.632,34.391  c-6.571,9.214-10.592,6.009-12.845,4.25C80.327,30.074,84.173,32.672,86.632,34.391L86.632,34.391z M73.152,10.477  c-5.203,8.434-1.373,11.088,1.103,12.773C80.016,14.563,75.611,11.949,73.152,10.477z M94,23.018  c-5.967,9.662-10.188,6.725-12.555,5.12C87.421,19.133,91.432,21.466,94,23.018L94,23.018z M88.882,4.309  C80.361,10.13,82.645,14.23,83.996,17C92.958,11.451,90.419,6.789,88.882,4.309z M5.622,87.475  c27.104-13.812,50.373-33.846,68-58.294c0.085,0.057,6.558-9.493,9.53-8.936c-0.334,0.184-3.731,6.342-9.77,14.248  c-5.984,7.964-14.607,17.674-24.15,26.304c-9.487,8.688-19.89,16.294-28.188,21.39c-8.244,5.154-14.383,7.797-14.094,7.899  C6.508,89.215,6.065,88.344,5.622,87.475L5.622,87.475z M51.829,39.057c-6.724,7.193-3.498,10.561-1.401,12.698  C57.751,44.411,53.943,40.988,51.829,39.057L51.829,39.057z M69.787,55.469c-7.706,8.239-11.271,4.539-13.271,2.496  C64.109,50.353,67.574,53.443,69.787,55.469z"></path></svg></g><path fill="#f2af29" fill-rule="nonzero" d="M3.17 17.54L0 17.54L0 17.30L0.48 17.14Q1.30 16.87 1.30 15.77L1.30 15.77L1.30 3.48Q1.30 3 1.19 2.71Q1.08 2.42 0.62 2.23L0.62 2.23L0 1.94L0 1.70L4.63 1.70L9.07 13.32L13.25 1.70L17.98 1.70L17.98 1.94L17.59 2.09Q17.14 2.26 16.97 2.56Q16.80 2.86 16.80 3.34L16.80 3.34L16.80 15.89Q16.80 16.37 16.92 16.63Q17.04 16.90 17.50 17.09L17.50 17.09L17.98 17.30L17.98 17.54L12 17.54L12 17.30L12.50 17.09Q12.96 16.90 13.08 16.63Q13.20 16.37 13.20 15.89L13.20 15.89L13.20 10.49L13.25 3.62L8.23 17.54L7.03 17.54L1.80 3.79L1.87 9.77L1.87 15.82Q1.87 16.34 2.03 16.67Q2.18 16.99 2.64 17.14L2.64 17.14L3.17 17.30L3.17 17.54ZM24.05 17.90L24.05 17.90Q22.46 17.90 21.35 17.32Q20.23 16.73 19.66 15.77Q19.08 14.81 19.08 13.63L19.08 13.63Q19.08 10.73 22.82 9.17L22.82 9.17Q22.15 8.26 21.64 7.32Q21.12 6.38 21.12 5.14L21.12 5.14Q21.12 3.43 22.33 2.41Q23.54 1.39 25.51 1.39L25.51 1.39Q27.43 1.39 28.49 2.24Q29.54 3.10 29.54 4.49L29.54 4.49Q29.54 5.66 28.58 6.55Q27.62 7.44 25.85 8.18L25.85 8.18Q26.30 8.69 26.80 9.25Q27.29 9.82 27.82 10.37L27.82 10.37Q28.46 11.09 29.08 11.74Q29.69 12.38 30.31 13.08L30.31 13.08Q30.89 12.29 31.39 11.16Q31.90 10.03 32.18 8.78L32.18 8.78Q32.38 7.87 31.49 7.61L31.49 7.61L31.32 7.54L31.32 7.30L34.03 7.30L34.03 7.54L33.82 7.61Q33.02 7.87 32.78 8.71L32.78 8.71Q32.42 10.06 31.90 11.26Q31.37 12.46 30.67 13.44L30.67 13.44L33.24 16.15Q33.55 16.49 33.86 16.70Q34.18 16.92 34.56 17.14L34.56 17.14L34.90 17.30L34.90 17.54L30.05 17.54L28.44 15.82Q27.98 16.32 27.41 16.80Q26.83 17.28 26.02 17.59Q25.20 17.90 24.05 17.90ZM25.56 7.87L25.56 7.87Q26.50 7.03 26.92 6.18Q27.34 5.33 27.34 4.30L27.34 4.30Q27.34 3.36 26.86 2.77Q26.38 2.18 25.54 2.18L25.54 2.18Q24.74 2.18 24.22 2.76Q23.69 3.34 23.69 4.22L23.69 4.22Q23.69 4.78 23.89 5.38Q24.10 5.98 24.62 6.74L24.62 6.74Q24.77 6.94 25.01 7.20Q25.25 7.46 25.56 7.87ZM25.44 16.30L25.44 16.30Q26.28 16.30 26.95 16.04Q27.62 15.79 28.10 15.41L28.10 15.41Q27.53 14.76 26.90 14.05Q26.28 13.34 25.73 12.70L25.73 12.70Q25.06 11.90 24.42 11.11Q23.78 10.32 23.16 9.58L23.16 9.58Q22.54 10.15 22.25 10.92Q21.96 11.69 21.96 12.53L21.96 12.53Q21.96 14.16 22.93 15.23Q23.90 16.30 25.44 16.30ZM39.46 17.54L36.29 17.54L36.29 17.30L36.77 17.14Q37.58 16.87 37.58 15.77L37.58 15.77L37.58 3.48Q37.58 3 37.48 2.71Q37.37 2.42 36.91 2.23L36.91 2.23L36.29 1.94L36.29 1.70L40.92 1.70L45.36 13.32L49.54 1.70L54.26 1.70L54.26 1.94L53.88 2.09Q53.42 2.26 53.26 2.56Q53.09 2.86 53.09 3.34L53.09 3.34L53.09 15.89Q53.09 16.37 53.21 16.63Q53.33 16.90 53.78 17.09L53.78 17.09L54.26 17.30L54.26 17.54L48.29 17.54L48.29 17.30L48.79 17.09Q49.25 16.90 49.37 16.63Q49.49 16.37 49.49 15.89L49.49 15.89L49.49 10.49L49.54 3.62L44.52 17.54L43.32 17.54L38.09 3.79L38.16 9.77L38.16 15.82Q38.16 16.34 38.32 16.67Q38.47 16.99 38.93 17.14L38.93 17.14L39.46 17.30L39.46 17.54ZM72.22 17.54L60.55 17.54L60.55 17.30L61.06 17.11Q61.56 16.92 61.69 16.64Q61.82 16.37 61.82 15.89L61.82 15.89L61.82 3.36Q61.82 2.88 61.68 2.59Q61.54 2.30 61.06 2.14L61.06 2.14L60.55 1.94L60.55 1.70L66.67 1.70L66.67 1.94L66.24 2.14Q65.78 2.30 65.62 2.60Q65.45 2.90 65.45 3.38L65.45 3.38L65.45 17.06L69.14 17.06Q70.03 17.06 70.45 16.63Q70.87 16.20 71.26 15.38L71.26 15.38L72.19 13.37L72.43 13.37L72.22 17.54ZM76.97 17.90L76.97 17.90Q75.58 17.90 74.63 17.11Q73.68 16.32 73.68 14.83L73.68 14.83Q73.68 13.70 74.83 12.76Q75.98 11.81 78.46 11.33L78.46 11.33Q78.84 11.26 79.32 11.17Q79.80 11.09 80.33 10.99L80.33 10.99L80.33 9.10Q80.33 7.46 79.93 6.80Q79.54 6.14 78.70 6.14L78.70 6.14Q78.12 6.14 77.78 6.52Q77.45 6.89 77.35 7.80L77.35 7.80L77.30 8.06Q77.26 9.10 76.80 9.58Q76.34 10.06 75.67 10.06L75.67 10.06Q75.05 10.06 74.64 9.67Q74.23 9.29 74.23 8.64L74.23 8.64Q74.23 7.66 74.92 6.98Q75.60 6.31 76.73 5.98Q77.86 5.64 79.18 5.64L79.18 5.64Q81.31 5.64 82.48 6.68Q83.64 7.73 83.64 10.08L83.64 10.08L83.64 15.38Q83.64 16.46 84.65 16.46L84.65 16.46L85.18 16.46L85.39 16.66Q84.94 17.23 84.40 17.54Q83.86 17.86 82.87 17.86L82.87 17.86Q81.82 17.86 81.20 17.36Q80.59 16.87 80.40 16.06L80.40 16.06Q79.68 16.82 78.92 17.36Q78.17 17.90 76.97 17.90ZM78.43 16.44L78.43 16.44Q78.91 16.44 79.33 16.21Q79.75 15.98 80.33 15.50L80.33 15.50L80.33 11.47Q80.09 11.52 79.85 11.57Q79.61 11.62 79.30 11.66L79.30 11.66Q78.19 11.95 77.53 12.64Q76.87 13.32 76.87 14.47L76.87 14.47Q76.87 15.46 77.33 15.95Q77.78 16.44 78.43 16.44ZM96.34 17.98L96.34 17.98Q95.02 17.98 93.65 17.65Q92.28 17.33 91.37 16.80L91.37 16.80L91.49 13.54L91.73 13.54L92.47 15.10Q92.81 15.77 93.19 16.28Q93.58 16.80 94.25 17.09L94.25 17.09Q94.73 17.33 95.17 17.41Q95.62 17.50 96.17 17.50L96.17 17.50Q97.63 17.50 98.48 16.70Q99.34 15.91 99.34 14.66L99.34 14.66Q99.34 13.49 98.76 12.83Q98.18 12.17 96.91 11.54L96.91 11.54L95.93 11.11Q93.86 10.20 92.70 9.01Q91.54 7.82 91.54 5.86L91.54 5.86Q91.54 4.44 92.27 3.41Q93.00 2.38 94.31 1.82Q95.62 1.27 97.37 1.27L97.37 1.27Q98.64 1.27 99.78 1.61Q100.92 1.94 101.76 2.52L101.76 2.52L101.62 5.40L101.38 5.40L100.39 3.60Q99.98 2.76 99.58 2.41Q99.17 2.06 98.64 1.92L98.64 1.92Q98.33 1.82 98.06 1.79Q97.80 1.75 97.39 1.75L97.39 1.75Q96.17 1.75 95.33 2.46Q94.49 3.17 94.49 4.37L94.49 4.37Q94.49 5.59 95.14 6.32Q95.78 7.06 97.03 7.63L97.03 7.63L98.14 8.11Q100.44 9.12 101.45 10.26Q102.46 11.40 102.46 13.20L102.46 13.20Q102.46 15.31 100.86 16.64Q99.26 17.98 96.34 17.98ZM109.46 23.06L103.63 23.06L103.63 22.82L103.92 22.73Q104.81 22.49 104.81 21.58L104.81 21.58L104.81 8.52Q104.81 7.99 104.63 7.73Q104.45 7.46 103.97 7.37L103.97 7.37L103.63 7.30L103.63 7.06L107.71 5.66L107.95 5.90L108.17 6.65Q108.96 6.17 109.93 5.90Q110.90 5.64 111.94 5.64L111.94 5.64Q114.00 5.64 115.21 7.21Q116.42 8.78 116.42 11.71L116.42 11.71Q116.42 14.59 115.09 16.25Q113.76 17.90 111.34 17.90L111.34 17.90Q109.44 17.90 108.14 17.35L108.14 17.35L108.14 21.50Q108.14 22.46 109.01 22.70L109.01 22.70L109.46 22.82L109.46 23.06ZM110.18 17.21L110.18 17.21Q111.38 17.21 112.09 15.96Q112.80 14.71 112.80 11.81L112.80 11.81Q112.80 8.90 112.13 7.74Q111.46 6.58 110.18 6.58L110.18 6.58Q109.30 6.58 108.22 7.15L108.22 7.15L108.22 16.82Q109.13 17.21 110.18 17.21ZM120.38 4.39L120.38 4.39Q119.57 4.39 119.00 3.88Q118.44 3.36 118.44 2.57L118.44 2.57Q118.44 1.75 119.00 1.25Q119.57 0.74 120.38 0.74L120.38 0.74Q121.20 0.74 121.75 1.25Q122.30 1.75 122.30 2.57L122.30 2.57Q122.30 3.36 121.75 3.88Q121.20 4.39 120.38 4.39ZM123.17 17.54L117.55 17.54L117.55 17.30L117.89 17.21Q118.37 17.06 118.55 16.78Q118.73 16.49 118.73 16.01L118.73 16.01L118.73 8.50Q118.73 7.99 118.55 7.74Q118.37 7.49 117.89 7.39L117.89 7.39L117.55 7.32L117.55 7.08L121.94 5.66L122.18 5.90L122.11 9.31L122.11 16.03Q122.11 16.51 122.29 16.80Q122.47 17.09 122.93 17.23L122.93 17.23L123.17 17.30L123.17 17.54ZM129.46 13.39L129.46 13.39Q127.80 13.39 126.65 12.84L126.65 12.84L126.65 13.66Q126.65 14.40 127.39 14.54L127.39 14.54L131.90 15.38Q133.03 15.60 133.94 15.95Q134.86 16.30 135.41 16.93Q135.96 17.57 135.96 18.67L135.96 18.67Q135.96 19.85 135.19 20.84Q134.42 21.84 132.92 22.45Q131.42 23.06 129.19 23.06L129.19 23.06Q127.27 23.06 126.14 22.67Q125.02 22.27 124.55 21.65Q124.08 21.02 124.08 20.33L124.08 20.33Q124.08 19.46 124.67 18.59Q125.26 17.71 126.12 17.18L126.12 17.18Q125.38 16.90 125.04 16.44Q124.70 15.98 124.70 15.46L124.70 15.46Q124.70 14.98 124.96 14.56Q125.21 14.14 125.57 13.70L125.57 13.70L126.36 12.70Q124.61 11.69 124.61 9.53L124.61 9.53Q124.61 7.80 125.84 6.72Q127.08 5.64 129.48 5.64L129.48 5.64Q130.70 5.64 131.63 5.93Q132.55 6.22 133.15 6.74L133.15 6.74Q133.92 6.62 134.60 6.35Q135.29 6.07 135.84 5.59L135.84 5.59L136.18 5.83L136.18 7.06L133.46 7.06Q134.33 8.02 134.33 9.53L134.33 9.53Q134.33 11.21 133.09 12.30Q131.86 13.39 129.46 13.39ZM129.43 12.91L129.43 12.91Q130.39 12.91 130.84 12.12Q131.28 11.33 131.28 9.48L131.28 9.48Q131.28 7.63 130.84 6.88Q130.39 6.12 129.48 6.12L129.48 6.12Q128.59 6.12 128.14 6.90Q127.68 7.68 127.68 9.53L127.68 9.53Q127.68 11.38 128.10 12.14Q128.52 12.91 129.43 12.91ZM125.86 19.56L125.86 19.56Q125.86 20.98 126.73 21.70Q127.61 22.42 129.50 22.42L129.50 22.42Q131.50 22.42 132.50 21.77Q133.51 21.12 133.51 19.94L133.51 19.94Q133.51 19.27 133.02 18.86Q132.53 18.46 131.35 18.24L131.35 18.24L127.01 17.42Q126.82 17.38 126.62 17.33L126.62 17.33Q126.29 17.81 126.07 18.42Q125.86 19.03 125.86 19.56ZM140.47 17.90L140.47 17.90Q139.08 17.90 138.13 17.11Q137.18 16.32 137.18 14.83L137.18 14.83Q137.18 13.70 138.34 12.76Q139.49 11.81 141.96 11.33L141.96 11.33Q142.34 11.26 142.82 11.17Q143.30 11.09 143.83 10.99L143.83 10.99L143.83 9.10Q143.83 7.46 143.44 6.80Q143.04 6.14 142.20 6.14L142.20 6.14Q141.62 6.14 141.29 6.52Q140.95 6.89 140.86 7.80L140.86 7.80L140.81 8.06Q140.76 9.10 140.30 9.58Q139.85 10.06 139.18 10.06L139.18 10.06Q138.55 10.06 138.14 9.67Q137.74 9.29 137.74 8.64L137.74 8.64Q137.74 7.66 138.42 6.98Q139.10 6.31 140.23 5.98Q141.36 5.64 142.68 5.64L142.68 5.64Q144.82 5.64 145.98 6.68Q147.14 7.73 147.14 10.08L147.14 10.08L147.14 15.38Q147.14 16.46 148.15 16.46L148.15 16.46L148.68 16.46L148.90 16.66Q148.44 17.23 147.90 17.54Q147.36 17.86 146.38 17.86L146.38 17.86Q145.32 17.86 144.71 17.36Q144.10 16.87 143.90 16.06L143.90 16.06Q143.18 16.82 142.43 17.36Q141.67 17.90 140.47 17.90ZM141.94 16.44L141.94 16.44Q142.42 16.44 142.84 16.21Q143.26 15.98 143.83 15.50L143.83 15.50L143.83 11.47Q143.59 11.52 143.35 11.57Q143.11 11.62 142.80 11.66L142.80 11.66Q141.70 11.95 141.04 12.64Q140.38 13.32 140.38 14.47L140.38 14.47Q140.38 15.46 140.83 15.95Q141.29 16.44 141.94 16.44ZM160.58 17.54L154.68 17.54L154.68 17.30L155.18 17.11Q155.95 16.80 155.95 15.89L155.95 15.89L155.95 3.36Q155.95 2.40 155.18 2.14L155.18 2.14L154.68 1.94L154.68 1.70L161.02 1.70Q163.56 1.70 165.40 2.65Q167.23 3.60 168.23 5.36Q169.22 7.13 169.22 9.60L169.22 9.60Q169.22 12.12 168.14 13.90Q167.06 15.67 165.13 16.61Q163.20 17.54 160.58 17.54L160.58 17.54ZM159.55 2.18L159.55 17.06L160.58 17.06Q162.31 17.06 163.37 16.38Q164.42 15.70 164.92 14.08Q165.41 12.46 165.41 9.62L165.41 9.62Q165.41 6.79 164.92 5.17Q164.42 3.55 163.39 2.87Q162.36 2.18 160.68 2.18L160.68 2.18L159.55 2.18ZM172.61 7.87L172.15 7.87L171.67 6.26Q171.48 5.45 171.24 4.55Q171.00 3.65 170.83 2.90Q170.66 2.16 170.66 1.80L170.66 1.80Q170.66 0.96 171.16 0.48Q171.65 0 172.37 0L172.37 0Q173.09 0 173.59 0.48Q174.10 0.96 174.10 1.80L174.10 1.80Q174.10 2.16 173.93 2.90Q173.76 3.65 173.52 4.55Q173.28 5.45 173.09 6.26L173.09 6.26L172.61 7.87ZM181.61 17.90L181.61 17.90Q179.78 17.90 178.44 17.15Q177.10 16.39 176.36 15Q175.63 13.61 175.63 11.74L175.63 11.74Q175.63 9.86 176.41 8.50Q177.19 7.13 178.55 6.38Q179.90 5.64 181.61 5.64L181.61 5.64Q183.31 5.64 184.66 6.37Q186.00 7.10 186.78 8.47Q187.56 9.84 187.56 11.74L187.56 11.74Q187.56 13.63 186.83 15.01Q186.10 16.39 184.76 17.15Q183.43 17.90 181.61 17.90ZM181.61 17.42L181.61 17.42Q182.45 17.42 182.95 16.94Q183.46 16.46 183.68 15.24Q183.91 14.02 183.91 11.78L183.91 11.78Q183.91 9.53 183.68 8.30Q183.46 7.08 182.95 6.60Q182.45 6.12 181.61 6.12L181.61 6.12Q180.77 6.12 180.25 6.60Q179.74 7.08 179.51 8.30Q179.28 9.53 179.28 11.78L179.28 11.78Q179.28 14.02 179.51 15.24Q179.74 16.46 180.25 16.94Q180.77 17.42 181.61 17.42ZM194.83 17.54L188.62 17.54L188.62 17.30L188.98 17.21Q189.46 17.06 189.64 16.78Q189.82 16.49 189.82 16.03L189.82 16.03L189.82 8.52Q189.82 7.99 189.64 7.74Q189.46 7.49 188.98 7.39L188.98 7.39L188.62 7.30L188.62 7.06L192.74 5.66L192.98 5.90L193.20 7.97L193.20 8.16Q193.54 7.49 194.08 6.92Q194.62 6.36 195.28 6Q195.94 5.64 196.58 5.64L196.58 5.64Q197.50 5.64 197.98 6.14Q198.46 6.65 198.46 7.42L198.46 7.42Q198.46 8.23 197.99 8.68Q197.52 9.12 196.87 9.12L196.87 9.12Q195.86 9.12 195.10 8.11L195.10 8.11L195.05 8.06Q194.81 7.73 194.50 7.69Q194.18 7.66 193.92 7.99L193.92 7.99Q193.68 8.21 193.52 8.51Q193.37 8.81 193.22 9.19L193.22 9.19L193.22 15.89Q193.22 16.85 194.06 17.09L194.06 17.09L194.83 17.30L194.83 17.54ZM205.27 17.90L205.27 17.90Q203.45 17.90 202.10 17.15Q200.76 16.39 200.03 15Q199.30 13.61 199.30 11.74L199.30 11.74Q199.30 9.86 200.08 8.50Q200.86 7.13 202.21 6.38Q203.57 5.64 205.27 5.64L205.27 5.64Q206.98 5.64 208.32 6.37Q209.66 7.10 210.44 8.47Q211.22 9.84 211.22 11.74L211.22 11.74Q211.22 13.63 210.49 15.01Q209.76 16.39 208.43 17.15Q207.10 17.90 205.27 17.90ZM205.27 17.42L205.27 17.42Q206.11 17.42 206.62 16.94Q207.12 16.46 207.35 15.24Q207.58 14.02 207.58 11.78L207.58 11.78Q207.58 9.53 207.35 8.30Q207.12 7.08 206.62 6.60Q206.11 6.12 205.27 6.12L205.27 6.12Q204.43 6.12 203.92 6.60Q203.40 7.08 203.17 8.30Q202.94 9.53 202.94 11.78L202.94 11.78Q202.94 14.02 203.17 15.24Q203.40 16.46 203.92 16.94Q204.43 17.42 205.27 17.42Z" transform="translate(36, 9.228)"></path></svg>