<?xml version="1.0" standalone="no"?>
<svg xmlns="http://www.w3.org/2000/svg" viewBox="0 0 89.184 36" width="89.184" height="36"><g fill="#274690" color="#274690" transform="translate(0 3.9999999999999982) scale(0.2800001)"><svg width="100.0" height="100.0" x="0.0" y="0.0" viewBox="0 0 100 100"><g><g><path fill="currentColor" d="M92.643,63.855c2.018,0.982,2.945,3.436,1.963,5.455c-0.927,2.073-3.381,2.945-5.454,1.964l-3.709-1.691    v14.455c0,0.273,0,0.545-0.055,0.818C85.007,90.527,80.263,95,74.536,95c-6.054,0-10.962-4.909-10.962-10.964    c0-6.055,4.908-10.964,10.962-10.964c0.927,0,1.854,0.109,2.727,0.382V63.145c0-0.6,0.109-1.2,0.382-1.745    c0.327-0.709,0.818-1.255,1.418-1.636c0.164-0.109,0.382-0.218,0.545-0.273c0.055,0,0.109-0.055,0.164-0.055    c0.218-0.109,0.436-0.218,0.654-0.273c0.873-0.218,1.8-0.164,2.672,0.273L92.643,63.855z M77.263,84.036    c0-1.527-1.2-2.782-2.727-2.782c-1.527,0-2.781,1.255-2.781,2.782c0,1.527,1.254,2.782,2.781,2.782    C76.063,86.818,77.263,85.564,77.263,84.036z"></path><path fill="currentColor" d="M94.988,50c0,2.236-1.8,4.091-4.09,4.091c-2.236,0-4.09-1.855-4.09-4.091c0-5.891-1.363-11.4-3.818-16.309    c-1.745-3.655-4.145-6.927-6.981-9.764c-6.654-6.655-15.816-10.745-26.015-10.745c-10.144,0-19.361,4.091-26.015,10.745    C17.326,30.636,13.181,39.8,13.181,50c0,4.309,0.764,8.4,2.127,12.218c1.8,5.236,4.854,9.982,8.672,13.8    c6.654,6.655,15.871,10.8,26.015,10.8c1.145,0,2.291-0.055,3.436-0.164c2.236-0.218,4.254,1.418,4.418,3.709    c0.218,2.236-1.418,4.2-3.654,4.418C52.775,94.945,51.412,95,49.994,95C25.125,95,5,74.818,5,50C5,25.127,25.125,5,49.994,5    S94.988,25.127,94.988,50z"></path><path fill="currentColor" d="M83.862,46.727c0.218,2.236-1.473,4.255-3.709,4.418c-2.236,0.218-4.199-1.418-4.418-3.709    c-0.055-0.436-0.109-0.927-0.218-1.364c-0.491-3.6-1.854-7.145-3.872-10.255c-1.254-1.855-0.764-4.418,1.145-5.673    c1.854-1.255,4.418-0.709,5.672,1.145c0.764,1.145,1.473,2.345,2.072,3.545C82.335,38.545,83.48,42.582,83.862,46.727z"></path><path fill="currentColor" d="M72.955,46.509c0.327,2.236-1.2,4.364-3.381,4.691c-2.236,0.382-4.363-1.145-4.69-3.382    c-0.218-1.418-0.654-2.836-1.309-4.145c-0.164-0.436-0.436-0.873-0.654-1.309c-1.091-1.964-0.436-4.473,1.527-5.564    c1.963-1.145,4.472-0.436,5.617,1.527C71.482,40.836,72.464,43.618,72.955,46.509z"></path><path fill="currentColor" d="M62.265,50c0,1.8-0.382,3.6-1.2,5.291c-2.127,4.418-6.49,6.982-11.071,6.982c-1.8,0-3.6-0.382-5.29-1.2    c-2.727-1.309-4.745-3.491-5.945-6.055c-0.654-1.582-1.036-3.273-1.036-5.018c0-1.8,0.382-3.6,1.2-5.291    c2.127-4.418,6.49-6.982,11.071-6.982c1.8,0,3.6,0.382,5.29,1.2c2.727,1.309,4.745,3.491,5.945,6.055    C61.883,46.564,62.265,48.255,62.265,50z M53.703,51.745C53.975,51.2,54.084,50.6,54.084,50c0-1.527-0.873-3-2.345-3.709    c-0.545-0.273-1.145-0.382-1.745-0.382c-1.527,0-3,0.818-3.709,2.291c-0.273,0.6-0.382,1.2-0.382,1.8c0,1.527,0.873,3,2.345,3.709    c0.545,0.273,1.145,0.382,1.745,0.382C51.521,54.091,52.994,53.218,53.703,51.745z"></path><path fill="currentColor" d="M37.068,57.636c1.091,1.964,0.436,4.418-1.527,5.564c-1.963,1.091-4.472,0.436-5.563-1.527    c-1.473-2.564-2.454-5.345-2.891-8.236c-0.382-2.236,1.145-4.309,3.381-4.691c2.236-0.327,4.309,1.145,4.69,3.382    c0.218,1.473,0.6,2.891,1.254,4.2C36.578,56.764,36.85,57.2,37.068,57.636z"></path><path fill="currentColor" d="M28.342,64.073c1.254,1.909,0.818,4.418-1.091,5.727c-1.854,1.255-4.363,0.764-5.672-1.091    c-1.582-2.291-2.836-4.8-3.763-7.418c-0.927-2.618-1.473-5.345-1.691-8.127c-0.164-2.236,1.527-4.2,3.763-4.364    s4.199,1.527,4.418,3.764c0.273,3.709,1.418,7.364,3.436,10.473C27.906,63.418,28.124,63.745,28.342,64.073z"></path></g></g></svg></g><path fill="#274690" fill-rule="nonzero" d="M7.49 17.76Q6.50 17.76 6 16.66L6 16.66L0.07 2.28Q0 2.09 0 1.87L0 1.87Q0 1.37 0.29 1.07Q0.58 0.77 1.08 0.77L1.08 0.77Q1.42 0.77 1.69 0.97Q1.97 1.18 2.11 1.51L2.11 1.51L7.75 15.58L13.39 1.51Q13.54 1.18 13.81 0.97Q14.09 0.77 14.42 0.77L14.42 0.77Q14.93 0.77 15.22 1.07Q15.50 1.37 15.50 1.87L15.50 1.87Q15.50 2.09 15.43 2.28L15.43 2.28L9.50 16.66Q9 17.76 8.02 17.76L8.02 17.76L7.49 17.76ZM18.77 2.90Q18.26 2.90 17.90 2.54Q17.54 2.18 17.54 1.68L17.54 1.68L17.54 1.58Q17.54 1.08 17.90 0.72Q18.26 0.36 18.77 0.36L18.77 0.36L18.91 0.36Q19.42 0.36 19.78 0.72Q20.14 1.08 20.14 1.58L20.14 1.58L20.14 1.68Q20.14 2.18 19.78 2.54Q19.42 2.90 18.91 2.90L18.91 2.90L18.77 2.90ZM18.82 17.76Q18.36 17.76 18.05 17.45Q17.74 17.14 17.74 16.68L17.74 16.68L17.74 6.38Q17.74 5.93 18.05 5.60Q18.36 5.28 18.82 5.28L18.82 5.28Q19.30 5.28 19.61 5.59Q19.92 5.90 19.92 6.38L19.92 6.38L19.92 16.68Q19.92 17.14 19.60 17.45Q19.27 17.76 18.82 17.76L18.82 17.76ZM24.79 17.76Q24.34 17.76 24.02 17.45Q23.71 17.14 23.71 16.68L23.71 16.68L23.71 6.38Q23.71 5.93 24.02 5.60Q24.34 5.28 24.79 5.28L24.79 5.28Q25.25 5.28 25.57 5.60Q25.90 5.93 25.90 6.38L25.90 6.38L25.90 7.37Q26.81 6.36 27.86 5.76Q28.92 5.16 30.36 5.16L30.36 5.16Q31.68 5.16 32.65 5.78Q33.62 6.41 34.14 7.49Q34.66 8.57 34.66 9.86L34.66 9.86L34.66 16.68Q34.66 17.14 34.33 17.45Q34.01 17.76 33.55 17.76L33.55 17.76Q33.10 17.76 32.78 17.45Q32.47 17.14 32.47 16.68L32.47 16.68L32.47 10.10Q32.47 7.18 29.83 7.18L29.83 7.18Q28.63 7.18 27.68 7.80Q26.74 8.42 25.90 9.48L25.90 9.48L25.90 16.68Q25.90 17.14 25.57 17.45Q25.25 17.76 24.79 17.76L24.79 17.76ZM40.85 23.28Q40.42 23.28 40.12 22.97Q39.82 22.66 39.82 22.22L39.82 22.22Q39.82 22.03 39.89 21.84L39.89 21.84L41.45 17.83L36.94 6.84Q36.84 6.60 36.84 6.38L36.84 6.38Q36.84 5.93 37.15 5.60Q37.46 5.28 37.92 5.28L37.92 5.28Q38.26 5.28 38.53 5.47Q38.81 5.66 38.93 5.95L38.93 5.95L42.62 15.12L46.39 6Q46.70 5.28 47.40 5.28L47.40 5.28Q47.86 5.28 48.17 5.60Q48.48 5.93 48.48 6.38L48.48 6.38Q48.48 6.60 48.41 6.79L48.41 6.79L41.86 22.54Q41.52 23.28 40.85 23.28L40.85 23.28ZM52.08 17.76Q51.62 17.76 51.31 17.45Q51 17.14 51 16.68L51 16.68L51 1.10Q51 0.65 51.31 0.32Q51.62 0 52.08 0L52.08 0Q52.56 0 52.87 0.31Q53.18 0.62 53.18 1.10L53.18 1.10L53.18 16.68Q53.18 17.14 52.86 17.45Q52.54 17.76 52.08 17.76L52.08 17.76Z" transform="translate(36, 9.18)"></path></svg>